<svg width="30" height="30" viewBox="0 0 30 30" fill="none" xmlns="http://www.w3.org/2000/svg">
<path fill-rule="evenodd" clip-rule="evenodd" d="M14.5 28C21.4036 28 27 22.4036 27 15.5C27 8.59644 21.4036 3 14.5 3C7.59644 3 2 8.59644 2 15.5C2 22.4036 7.59644 28 14.5 28ZM21.2021 12.5657C21.5145 12.2533 21.5145 11.7467 21.2021 11.4343C20.8896 11.1219 20.3831 11.1219 20.0707 11.4343L12.6364 18.8686L9.5657 15.7979C9.25328 15.4855 8.74675 15.4855 8.43433 15.7979C8.12191 16.1104 8.12191 16.6169 8.43433 16.9293L12.0707 20.5657C12.3831 20.8781 12.8896 20.8781 13.2021 20.5657L21.2021 12.5657Z" fill="black"/>
</svg>
