<svg width="30" height="30" viewBox="0 0 30 30" fill="none" xmlns="http://www.w3.org/2000/svg">
<path fill-rule="evenodd" clip-rule="evenodd" d="M15 27.5C21.9036 27.5 27.5 21.9036 27.5 15C27.5 8.09644 21.9036 2.5 15 2.5C8.09644 2.5 2.5 8.09644 2.5 15C2.5 21.9036 8.09644 27.5 15 27.5ZM14.4343 9.43432C14.7467 9.1219 15.2533 9.1219 15.5657 9.43432L20.5647 14.4333C20.568 14.4366 20.5712 14.4398 20.5744 14.4431C20.7248 14.5982 20.8 14.7991 20.8 15C20.8 15.1093 20.7781 15.2135 20.7384 15.3085C20.7008 15.3984 20.6462 15.4829 20.5744 15.5569C20.5712 15.5602 20.568 15.5634 20.5647 15.5667L15.5657 20.5657C15.2533 20.8781 14.7467 20.8781 14.4343 20.5657C14.1219 20.2533 14.1219 19.7467 14.4343 19.4343L18.0686 15.8H10C9.55818 15.8 9.20001 15.4418 9.20001 15C9.20001 14.5582 9.55818 14.2 10 14.2H18.0686L14.4343 10.5657C14.1219 10.2533 14.1219 9.74673 14.4343 9.43432Z" fill="black"/>
</svg>
