<svg width="56" height="56" viewBox="0 0 56 56" fill="none" xmlns="http://www.w3.org/2000/svg">
<path d="M25.0289 4.4269C25.9564 2.10833 26.4202 0.94905 27.0834 0.607083C27.6585 0.31052 28.3415 0.31052 28.9166 0.607083C29.5798 0.94905 30.0436 2.10833 30.9711 4.4269L31.3859 5.46389C31.9247 6.81066 32.1941 7.48405 32.6551 7.82247C33.059 8.11889 33.5594 8.25296 34.0573 8.19818C34.6258 8.13563 35.1958 7.68715 36.3358 6.7902L37.2135 6.09955C39.1761 4.55538 40.1573 3.7833 40.9026 3.81872C41.549 3.84944 42.1405 4.19097 42.4903 4.73536C42.8936 5.36309 42.7156 6.59894 42.3596 9.07063L42.2003 10.1761C41.9935 11.6118 41.8902 12.3297 42.1202 12.8533C42.3218 13.3119 42.6881 13.6782 43.1467 13.8798C43.6703 14.1098 44.3882 14.0065 45.8239 13.7997L46.9294 13.6404C49.4011 13.2844 50.6369 13.1064 51.2646 13.5097C51.809 13.8595 52.1506 14.451 52.1813 15.0974C52.2167 15.8427 51.4446 16.8239 49.9004 18.7865L49.2098 19.6642C48.3129 20.8042 47.8644 21.3742 47.8018 21.9427C47.747 22.4406 47.8811 22.941 48.1775 23.3449C48.516 23.8059 49.1893 24.0753 50.5361 24.6141L51.5731 25.0289C53.8917 25.9564 55.0509 26.4202 55.3929 27.0834C55.6895 27.6585 55.6895 28.3415 55.3929 28.9166C55.0509 29.5798 53.8917 30.0436 51.5731 30.9711L50.5361 31.3859C49.1893 31.9247 48.516 32.1941 48.1775 32.6551C47.8811 33.059 47.747 33.5594 47.8018 34.0573C47.8644 34.6258 48.3129 35.1958 49.2098 36.3358L49.9004 37.2135C51.4446 39.1761 52.2167 40.1573 52.1813 40.9026C52.1506 41.549 51.809 42.1405 51.2646 42.4903C50.6369 42.8936 49.4011 42.7156 46.9294 42.3596L45.8239 42.2003C44.3882 41.9935 43.6703 41.8902 43.1467 42.1202C42.6881 42.3218 42.3218 42.6881 42.1202 43.1467C41.8902 43.6703 41.9935 44.3882 42.2003 45.8239L42.3596 46.9294C42.7156 49.4011 42.8936 50.6369 42.4903 51.2646C42.1405 51.809 41.549 52.1506 40.9026 52.1813C40.1573 52.2167 39.1761 51.4446 37.2135 49.9004L36.3358 49.2098C35.1958 48.3129 34.6258 47.8644 34.0573 47.8018C33.5594 47.747 33.059 47.8811 32.6551 48.1775C32.1941 48.516 31.9247 49.1893 31.3859 50.5361L30.9711 51.5731C30.0436 53.8917 29.5798 55.0509 28.9166 55.3929C28.3415 55.6895 27.6585 55.6895 27.0834 55.3929C26.4202 55.0509 25.9564 53.8917 25.0289 51.5731L24.6141 50.5361C24.0753 49.1893 23.8059 48.516 23.3449 48.1775C22.941 47.8811 22.4406 47.747 21.9427 47.8018C21.3742 47.8644 20.8042 48.3129 19.6642 49.2098L18.7865 49.9004C16.8239 51.4446 15.8427 52.2167 15.0974 52.1813C14.451 52.1506 13.8595 51.809 13.5097 51.2646C13.1064 50.6369 13.2844 49.4011 13.6404 46.9294L13.7997 45.8239C14.0065 44.3882 14.1098 43.6703 13.8798 43.1467C13.6782 42.6881 13.3119 42.3218 12.8533 42.1202C12.3297 41.8902 11.6118 41.9935 10.1761 42.2003L9.07063 42.3596C6.59894 42.7156 5.36309 42.8936 4.73536 42.4903C4.19097 42.1405 3.84944 41.549 3.81872 40.9026C3.7833 40.1573 4.55538 39.1761 6.09955 37.2135L6.7902 36.3358C7.68715 35.1958 8.13563 34.6258 8.19818 34.0573C8.25296 33.5594 8.11889 33.059 7.82247 32.6551C7.48405 32.1941 6.81066 31.9247 5.46389 31.3859L4.4269 30.9711C2.10833 30.0436 0.94905 29.5798 0.607083 28.9166C0.31052 28.3415 0.31052 27.6585 0.607083 27.0834C0.94905 26.4202 2.10833 25.9564 4.4269 25.0289L5.46389 24.6141C6.81066 24.0753 7.48405 23.8059 7.82247 23.3449C8.11889 22.941 8.25296 22.4406 8.19818 21.9427C8.13563 21.3742 7.68715 20.8042 6.7902 19.6642L6.09955 18.7865C4.55538 16.8239 3.7833 15.8427 3.81872 15.0974C3.84944 14.451 4.19097 13.8595 4.73536 13.5097C5.36309 13.1064 6.59894 13.2844 9.07063 13.6404L10.1761 13.7997C11.6118 14.0065 12.3297 14.1098 12.8533 13.8798C13.3119 13.6782 13.6782 13.3119 13.8798 12.8533C14.1098 12.3297 14.0065 11.6118 13.7997 10.1761L13.6404 9.07063C13.2844 6.59894 13.1064 5.36309 13.5097 4.73536C13.8595 4.19097 14.451 3.84944 15.0974 3.81872C15.8427 3.7833 16.8239 4.55538 18.7865 6.09955L19.6642 6.7902C20.8042 7.68715 21.3742 8.13563 21.9427 8.19818C22.4406 8.25296 22.941 8.11889 23.3449 7.82247C23.8059 7.48405 24.0753 6.81066 24.6141 5.46389L25.0289 4.4269Z" fill="#EFC676"/>
</svg>
